<svg width="53" height="53" viewBox="0 0 53 53" fill="none" xmlns="http://www.w3.org/2000/svg">
<circle cx="26.5" cy="26.5" r="26.5" fill="#C4C4C4"/>
<circle cx="26.5" cy="26.5" r="26.5" fill="#22B07E"/>
<g clip-path="url(#clip0_9_10)">
<path d="M27.3975 26.001V25.501V19.5069C27.3975 19.3721 27.3447 19.2443 27.2531 19.1513C27.1618 19.0586 27.0397 19.0079 26.9141 19.0079C26.7884 19.0079 26.6663 19.0586 26.575 19.1513C26.4835 19.2443 26.4307 19.3721 26.4307 19.5069V25.501V26.001H25.9307H20.0303C19.9046 26.001 19.7825 26.0516 19.6912 26.1443L27.3975 26.001ZM27.3975 26.001H27.8975M27.3975 26.001H27.8975M27.8975 26.001H33.7979M27.8975 26.001H33.7979M26.4307 26.999V27.499V33.4931C26.4307 33.6279 26.4835 33.7557 26.575 33.8487C26.6663 33.9414 26.7885 33.9921 26.9141 33.9921C27.0397 33.9921 27.1618 33.9414 27.2531 33.8487L26.4307 26.999ZM26.4307 26.999H25.9307M26.4307 26.999H25.9307M25.9307 26.999H20.0303C19.9046 26.999 19.7825 26.9484 19.6912 26.8557L25.9307 26.999ZM27.3975 26.999H27.8975H33.7979C33.9235 26.999 34.0456 26.9484 34.1368 26.8557L27.3975 26.999ZM27.3975 26.999V27.499M27.3975 26.999V27.499M27.3975 27.499V33.4931C27.3975 33.6279 27.3446 33.7557 27.2531 33.8487L27.3975 27.499ZM33.7979 26.001C33.9235 26.001 34.0456 26.0516 34.1368 26.1443L33.7979 26.001ZM19.5469 26.5C19.5469 26.3651 19.5997 26.2374 19.6912 26.1444V26.8556C19.5997 26.7626 19.5469 26.6349 19.5469 26.5ZM34.2812 26.5C34.2812 26.6348 34.2284 26.7626 34.1369 26.8557V26.1443C34.2284 26.2374 34.2812 26.3652 34.2812 26.5Z" fill="white" stroke="white"/>
</g>
<defs>
<clipPath id="clip0_9_10">
<rect width="15.7344" height="15.9841" fill="white" transform="translate(19.0469 18.5079)"/>
</clipPath>
</defs>
</svg>
