<svg width="25" height="25" viewBox="0 0 25 25" fill="none" xmlns="http://www.w3.org/2000/svg">
<path d="M14.866 2.30095H6.86598C6.33555 2.30095 5.82684 2.51166 5.45177 2.88674C5.0767 3.26181 4.86598 3.77052 4.86598 4.30095V20.3009C4.86598 20.8314 5.0767 21.3401 5.45177 21.7152C5.82684 22.0902 6.33555 22.3009 6.86598 22.3009H18.866C19.3964 22.3009 19.9051 22.0902 20.2802 21.7152C20.6553 21.3401 20.866 20.8314 20.866 20.3009V8.30095L14.866 2.30095Z" stroke="#636265" stroke-width="2" stroke-linecap="round" stroke-linejoin="round"/>
<path d="M14.866 2.30095V8.30095H20.866" stroke="#636265" stroke-width="2" stroke-linecap="round" stroke-linejoin="round"/>
<path d="M16.866 13.3009H8.86598" stroke="#636265" stroke-width="2" stroke-linecap="round" stroke-linejoin="round"/>
<path d="M16.866 17.3009H8.86598" stroke="#636265" stroke-width="2" stroke-linecap="round" stroke-linejoin="round"/>
<path d="M10.866 9.30095H9.86598H8.86598" stroke="#636265" stroke-width="2" stroke-linecap="round" stroke-linejoin="round"/>
</svg>
