<svg width="20" height="20" viewBox="0 0 25 25" fill="none" xmlns="http://www.w3.org/2000/svg">
<path d="M3.86731 6.4415H5.86731H21.8673" stroke="black" stroke-width="2" stroke-linecap="round" stroke-linejoin="round"/>
<path d="M8.86731 6.4415V4.4415C8.86731 3.91106 9.07802 3.40235 9.4531 3.02728C9.82817 2.65221 10.3369 2.4415 10.8673 2.4415H14.8673C15.3977 2.4415 15.9065 2.65221 16.2815 3.02728C16.6566 3.40235 16.8673 3.91106 16.8673 4.4415V6.4415M19.8673 6.4415V20.4415C19.8673 20.9719 19.6566 21.4806 19.2815 21.8557C18.9065 22.2308 18.3977 22.4415 17.8673 22.4415H7.86731C7.33688 22.4415 6.82817 22.2308 6.4531 21.8557C6.07802 21.4806 5.86731 20.9719 5.86731 20.4415V6.4415H19.8673Z" stroke="black" stroke-width="2" stroke-linecap="round" stroke-linejoin="round"/>
<path d="M10.8673 11.4415V17.4415" stroke="black" stroke-width="2" stroke-linecap="round" stroke-linejoin="round"/>
<path d="M14.8673 11.4415V17.4415" stroke="black" stroke-width="2" stroke-linecap="round" stroke-linejoin="round"/>
</svg>
